<?xml version="1.0" encoding="UTF-8"?>
<!DOCTYPE svg PUBLIC "-//W3C//DTD SVG 1.1//EN" "http://www.w3.org/Graphics/SVG/1.1/DTD/svg11.dtd">
<!-- Creator: CorelDRAW -->
<svg xmlns="http://www.w3.org/2000/svg" xml:space="preserve" width="2048px" height="2048px" style="shape-rendering:geometricPrecision; text-rendering:geometricPrecision; image-rendering:optimizeQuality; fill-rule:evenodd; clip-rule:evenodd"
viewBox="0 0 2048 2048"
 xmlns:xlink="http://www.w3.org/1999/xlink">
 <defs>
  <style type="text/css">
   <![CDATA[
    .fil0 {fill:#00838F}
    .fil1 {fill:white}
   ]]>
  </style>
 </defs>
 <g id="Layer_x0020_1">
  <metadata id="CorelCorpID_0Corel-Layer"/>
  <rect class="fil0" width="2048" height="2048" rx="256.001" ry="256.001"/>
  <path class="fil1" d="M1247.96 507.188l0 759.223c28.2768,26.5595 51.4748,58.4622 67.9713,94.0961 17.9882,38.8595 28.0299,82.0536 28.0299,127.484 0,83.9446 -34.0276,159.945 -89.0422,214.96 -55.0146,55.0146 -131.015,89.0422 -214.96,89.0422 -83.9446,0 -159.945,-34.0276 -214.96,-89.0422 -55.0146,-55.0146 -89.0422,-131.015 -89.0422,-214.96 0,-45.43 10.0406,-88.6241 28.0299,-127.484 16.4965,-35.6339 39.6933,-67.5367 67.9701,-94.0961l0 -759.223c0,-57.2315 23.3918,-109.241 61.0749,-146.925 37.6843,-37.6831 89.6942,-61.0749 146.927,-61.0749 57.2315,0 109.241,23.3918 146.926,61.0749 37.6831,37.6831 61.0749,89.693 61.0749,146.925zm-95.9989 845.181c17.602,14.5571 32.3339,32.5028 43.2095,52.8496 13.2662,24.8244 20.7898,53.015 20.7898,82.7717 0,48.5977 -19.702,92.5997 -51.5516,124.449 -31.8496,31.8496 -75.8516,51.5516 -124.449,51.5516 -48.5977,0 -92.5997,-19.702 -124.449,-51.5516 -31.8496,-31.8496 -51.5516,-75.8516 -51.5516,-124.449 0,-29.7591 7.52363,-57.9485 20.791,-82.7717 10.8744,-20.3469 25.6075,-38.2937 43.2095,-52.8508l0 -232.128 0 -21.0898 19.5012 -8.28544 160.001 -67.9843 44.5004 -18.9071 0 48.2823 0 300.114zm-0.0011811 -808.377l-224 0 0 -64.0016 224 0 0 64.0016zm0 96.0048l-139.114 0 0 -64.0016 139.114 0 0 64.0016zm0 95.9906l-224 0 0 -64.0016 224 0 0 64.0016zm0 192.01l-224 0 0 -64.0016 224 0 0 64.0016zm0 -96.0048l-139.114 0 0 -64.0016 139.114 0 0 64.0016z"/>
 </g>
</svg>
